# xmcd CD database file
#
# Track frame offsets:
#	150
#	10443
#	32951
#	79539
#	101029
#	127719
#	149850
#	170753
#
# Disc length: 2700 seconds
#
# Revision: 0
# Processed by: cddbd v1.5.2PL0 Copyright (c) Steve Scherf et al.
# Submitted via: CDex 1.50
#
DISCID=6b0a8a08
DTITLE=Сергей Жилин - Mambo-Jazz
DYEAR=2007
DGENRE=Jazz
TTITLE0=Samba L.A.
TTITLE1=Before we part
TTITLE2=Leap of faith
TTITLE3=After a rain
TTITLE4=Rio-funk
TTITLE5=Slow body poppin'
TTITLE6=Go for it
TTITLE7=When you leave...
EXTD=YEAR: 2007
EXTT0=
EXTT1=
EXTT2=
EXTT3=
EXTT4=
EXTT5=
EXTT6=
EXTT7=
PLAYORDER=
